<?xml version="1.0" encoding="UTF-8" standalone="no"?>
<!-- (c) 2025 Kenny Young -->
<!-- This code is licensed under the MIT License. -->
<!-- https://github.com/tabascq/PuzzleJS -->
<svg viewBox="-10 -10 20 20" xmlns="http://www.w3.org/2000/svg">
    <g id="edge-base">
        <line stroke-width="0.5" stroke-dasharray="2,4" x1="-10" y1="-10" x2="10" y2="-10"></line>
        <line stroke-width="0.5" stroke-dasharray="2,4" x1="-10" y1="10" x2="10" y2="10"></line>
        <line stroke-width="0.5" stroke-dasharray="2,4" x1="-10" y1="-10" x2="-10" y2="10"></line>
        <line stroke-width="0.5" stroke-dasharray="2,4" x1="10" y1="-10" x2="10" y2="10"></line>
    </g>
    <path id="edge-top"  stroke-width="1.5" stroke-linecap="round" d="M-10,-10 H10"></path>
    <path id="edge-left" stroke-width="1.5" stroke-linecap="round" d="M-10,-10 V10"></path>
    <path id="edge-right" stroke-width="1.5" stroke-linecap="round" d="M10,-10 V10"></path>
    <path id="edge-bottom" stroke-width="1.5" stroke-linecap="round" d="M-10,10 H10"></path>
    <path id="x-edge-top" stroke-width="1" d="M-2,-12 L2,-8 M2,-12 L-2,-8"></path>
    <path id="x-edge-left" stroke-width="1" d="M-12,-2 L-8,2 M-12,2 L-8,-2"></path>
    <path id="x-edge-right" stroke-width="1" d="M12,-2 L8,2 M12,2 L8,-2"></path>
    <path id="x-edge-bottom" stroke-width="1" d="M-2,12 L2,8 M2,12 L-2,8"></path>
</svg>